Coordinates
version=1
nRows=19
nColumns=33
inDegrees=yes

Units are S.I. units (second, meters, Newtons, ...)
Angles are in degrees.

endheader
time	ground_thorax_rot_x	ground_thorax_rot_y	ground_thorax_rot_z	ground_thorax_tx	ground_thorax_ty	ground_thorax_tz	clav_prot_r	clav_elev_r	scapula_abduction_r	scapula_elevation_r	scapula_upward_rot_r	scapula_winging_r	shoulder_elv_r	plane_of_elev_r	axial_rot_r	elbow_flexion_r	pro_sup_r	wrist_flex_r	wrist_dev_r	clav_prot_l	clav_elev_l	scapula_abduction_l	scapula_elevation_l	scapula_upward_rot_l	scapula_winging_l	shoulder_elv_l	plane_of_elev_l	axial_rot_l	elbow_flexion_l	pro_sup_l	wrist_flex_l	wrist_dev_l
      7.41000000	    -28.56301522	    -29.53119005	     37.19638625	    -35.59628149	    838.51194145	    -48.27129332	     26.70221283	    -45.00000000	     40.35510927	    -45.00000000	    -45.00000000	   1696.18594081	   4754.77570489	     22.83418470	   -157.85793716	   2517.96222364	    157.66514934	     13.83691749	     16.18036513	     -0.35490116	     32.31280600	    -32.41983768	    -45.00000000	    -45.00000000	   3325.93655214	  -3881.01952863	     29.22009653	     63.84499614	   1070.41925336	     45.03477447	     14.76326828	    -20.65653810
      7.42000000	    -28.43288409	    -29.65843608	     37.57322340	    -33.02004288	    837.79500429	    -48.10065992	     26.63669063	    -45.00000000	     40.31296571	    -45.00000000	    -45.00000000	   1696.40065119	   4754.70451441	     22.78272612	   -158.10507593	   2517.94298769	    158.07958913	     13.77063971	     16.19650641	     -0.15502408	     32.34978173	    -32.48445841	    -45.00000000	    -45.00000000	   3325.88013520	  -3881.01282401	     29.29415760	     63.91233077	   1070.37628022	     45.08271539	     14.77589122	    -20.44656788
      7.43000000	    -28.02465774	    -30.01838131	     38.19690477	    -30.40941944	    837.03959095	    -47.92979473	     26.74416469	    -45.00000000	     40.57720483	    -45.00000000	    -45.00000000	   1696.46749384	   4754.63632354	     22.81647817	   -158.15767637	   2517.95627919	    158.55277073	     13.61717498	     16.26480654	     -0.42232191	     32.24422120	    -32.39361478	    -45.00000000	    -45.00000000	   3325.73550073	  -3881.04865335	     29.10353443	     64.08986085	   1070.31643488	     45.13049901	     14.82922541	    -20.28975883
      7.44000000	    -27.89326131	    -30.14507694	     38.59237773	    -27.76868083	    836.24615809	    -47.75904574	     26.76165734	    -45.00000000	     40.44396036	    -45.00000000	    -45.00000000	   1696.66175925	   4754.56800800	     22.84887224	   -158.36706078	   2517.99192292	    159.06347992	     13.55020182	     16.24685989	     -0.23328431	     32.27096960	    -32.40231494	    -45.00000000	    -45.00000000	   3325.71381987	  -3881.06140192	     29.23193842	     64.13300431	   1070.33390990	     45.16745924	     14.82748213	    -20.10685242
      7.45000000	    -27.54134367	    -30.43901616	     39.19547615	    -25.10048029	    835.41472971	    -47.58935989	     26.79046076	    -45.00000000	     40.61713212	    -45.00000000	    -45.00000000	   1696.77832159	   4754.47804136	     22.82534694	   -158.44383627	   2518.03290424	    159.63391269	     13.40799470	     16.28093077	     -0.35908926	     32.19853935	    -32.30884341	    -45.00000000	    -45.00000000	   3325.57300717	  -3881.09652674	     29.10314251	     64.26073875	   1070.33180842	     45.20895117	     14.84392639	    -19.93809169
      7.46000000	    -27.40999826	    -30.53343663	     39.55443216	    -22.40520167	    834.54387901	    -47.42123724	     26.79249826	    -45.00000000	     40.48627107	    -45.00000000	    -45.00000000	   1696.95459069	   4754.40564182	     22.85816460	   -158.65687131	   2518.03518760	    160.25039702	     13.37747990	     16.24353828	     -0.15867951	     32.22074702	    -32.33900643	    -45.00000000	    -45.00000000	   3325.55363547	  -3881.11982227	     29.25136682	     64.26315128	   1070.26132586	     45.26263826	     14.85036733	    -19.73649602
      7.47000000	    -27.24444261	    -30.63297801	     39.90333070	    -19.69204025	    833.63502959	    -47.25574200	     26.64427157	    -45.00000000	     40.43878863	    -45.00000000	    -45.00000000	   1697.23205039	   4754.33739731	     22.82327569	   -158.92287790	   2518.07213838	    160.95146720	     13.34099899	     16.19016037	      0.06565178	     32.24062698	    -32.37446529	    -45.00000000	    -45.00000000	   3325.47103487	  -3881.17756449	     29.26580136	     64.37874201	   1070.23154170	     45.30288978	     14.82034235	    -19.51190143
      7.48000000	    -26.93978361	    -30.85113415	     40.42277513	    -16.95972856	    832.68584226	    -47.09289273	     26.75220383	    -45.00000000	     40.49743066	    -45.00000000	    -45.00000000	   1697.34635691	   4754.26134845	     22.85790494	   -158.99410632	   2518.10922764	    161.67408118	     13.27157026	     16.16682875	      0.02221570	     32.19206811	    -32.25773219	    -45.00000000	    -45.00000000	   3325.35871690	  -3881.19781062	     29.25972203	     64.46016876	   1070.17708194	     45.34670049	     14.81716803	    -19.31854773
      7.49000000	    -26.70569970	    -30.98570564	     40.89707705	    -14.21322918	    831.69582541	    -46.93282282	     26.74070147	    -45.00000000	     40.50620710	    -45.00000000	    -45.00000000	   1697.50700046	   4754.16792269	     22.82292323	   -159.11450078	   2518.15485229	    162.39455837	     13.20646915	     16.13881378	      0.07933361	     32.16894251	    -32.24283018	    -45.00000000	    -45.00000000	   3325.26243853	  -3881.24740315	     29.26238030	     64.52010818	   1070.16159203	     45.38944546	     14.80200099	    -19.13477688
      7.50000000	    -26.57237246	    -31.07717206	     41.16530324	    -11.45065994	    830.66221934	    -46.77446351	     26.54752083	    -45.00000000	     40.38329054	    -45.00000000	    -45.00000000	   1697.84116757	   4754.12839584	     22.76790610	   -159.40494196	   2518.13652536	    163.20118071	     13.20394459	     16.07835455	      0.36503138	     32.20578404	    -32.33286982	    -45.00000000	    -45.00000000	   3325.18589257	  -3881.36043229	     29.20735636	     64.58991933	   1070.11740960	     45.45264621	     14.75303406	    -18.90736917
      7.51000000	    -26.15756222	    -31.32500759	     41.87344630	     -8.67985827	    829.58614877	    -46.61667923	     26.85783020	    -45.00000000	     40.54350390	    -45.00000000	    -45.00000000	   1697.75065139	   4753.97910397	     22.83833439	   -159.21072383	   2518.19220056	    163.89436919	     13.13714660	     16.07622453	      0.06510590	     32.08770358	    -32.10136173	    -45.00000000	    -45.00000000	   3325.06915878	  -3881.33560160	     29.23230166	     64.64402575	   1070.04341891	     45.52352339	     14.77146868	    -18.77550319
      7.52000000	    -25.84201799	    -31.52090477	     42.41973458	     -5.89618646	    828.46409478	    -46.45697909	     26.86760741	    -45.00000000	     40.57859368	    -45.00000000	    -45.00000000	   1697.90249758	   4753.90222190	     22.79804705	   -159.20228916	   2518.26780778	    164.53868613	     13.06191216	     16.02628209	      0.07755157	     32.03941783	    -31.95915135	    -45.00000000	    -45.00000000	   3324.92538768	  -3881.39400678	     29.19978003	     64.61857950	   1070.08104244	     45.59788435	     14.73263957	    -18.62147424
      7.53000000	    -25.40697242	    -31.75782361	     43.13530725	     -3.10265340	    827.29538075	    -46.29292005	     27.02962389	    -45.00000000	     40.80069318	    -45.00000000	    -45.00000000	   1697.87570913	   4753.76897485	     22.74008872	   -159.06230460	   2518.29718922	    165.14779639	     12.93354515	     16.07703579	     -0.14532686	     31.91279044	    -31.82870308	    -45.00000000	    -45.00000000	   3324.76934055	  -3881.43497485	     29.08445250	     64.58197022	   1069.98996090	     45.69778985	     14.76903155	    -18.51351567
      7.54000000	    -25.15842900	    -31.86342365	     43.59865344	     -0.30389784	    826.07977762	    -46.12197646	     26.94164423	    -45.00000000	     40.77133597	    -45.00000000	    -45.00000000	   1698.07061727	   4753.70989972	     22.63321690	   -159.03747479	   2518.31066449	    165.71970739	     12.88689965	     16.01898282	      0.01674156	     31.89359151	    -31.79402603	    -45.00000000	    -45.00000000	   3324.64854402	  -3881.54044626	     29.05905289	     64.48470518	   1069.98213021	     45.79729950	     14.72795251	    -18.36233567
      7.55000000	    -24.89801139	    -31.96838193	     44.05721371	      2.49514519	    824.81748130	    -45.94210439	     26.92290837	    -45.00000000	     40.75673229	    -45.00000000	    -45.00000000	   1698.21283415	   4753.62307121	     22.58468230	   -158.95931594	   2518.34828851	    166.30249407	     12.86454661	     15.95223773	      0.07603174	     31.85214321	    -31.70507900	    -45.00000000	    -45.00000000	   3324.52711242	  -3881.61958904	     29.06190186	     64.45934461	   1069.94960445	     45.90088302	     14.68246833	    -18.21796349
      7.56000000	    -24.62834634	    -32.06780922	     44.52977041	      5.29055910	    823.50889624	    -45.75202055	     26.90925975	    -45.00000000	     40.75175042	    -45.00000000	    -45.00000000	   1698.34739964	   4753.53863207	     22.51494320	   -158.84827539	   2518.38237816	    166.87975305	     12.83256100	     15.88182632	      0.14114589	     31.80185992	    -31.59809200	    -45.00000000	    -45.00000000	   3324.38190115	  -3881.69445517	     29.05020142	     64.40747942	   1069.92225180	     45.99935797	     14.63139604	    -18.06991007
      7.57000000	    -24.31017903	    -32.17408791	     45.05917305	      8.07958435	    822.15566737	    -45.55129328	     26.92882244	    -45.00000000	     40.80841943	    -45.00000000	    -45.00000000	   1698.44377105	   4753.45742924	     22.40880007	   -158.68490495	   2518.39604595	    167.43698353	     12.79097132	     15.81189276	      0.15679104	     31.73417207	    -31.44673236	    -45.00000000	    -45.00000000	   3324.18739411	  -3881.74615831	     29.00879593	     64.32421358	   1069.87373268	     46.09317756	     14.56712872	    -17.89400308
      7.58000000	    -24.00412090	    -32.27164856	     45.57365215	     10.86116387	    820.76085299	    -45.34035089	     26.96070618	    -45.00000000	     40.83328277	    -45.00000000	    -45.00000000	   1698.54628486	   4753.37765117	     22.32172127	   -158.48311532	   2518.44437006	    167.97139688	     12.75072886	     15.72082635	      0.13882995	     31.67883636	    -31.31295782	    -45.00000000	    -45.00000000	   3323.99974325	  -3881.81456868	     28.94923510	     64.25764661	   1069.83106866	     46.17122762	     14.49348503	    -17.71096867
      7.59000000	    -23.76399282	    -32.35994353	     46.00410824	     13.63715676	    819.32848539	    -45.12031535	     26.99835650	    -45.00000000	     40.78460626	    -45.00000000	    -45.00000000	   1698.65535973	   4753.26943063	     22.31171794	   -158.26888458	   2518.53293247	    168.50052450	     12.70481614	     15.65678380	      0.11550130	     31.63201892	    -31.21447811	    -45.00000000	    -45.00000000	   3323.91698792	  -3881.93131424	     28.94534615	     64.26841322	   1069.81580921	     46.22376131	     14.45904422	    -17.59184099
